<svg width="24" height="24" viewBox="0 0 24 24" fill="none" xmlns="http://www.w3.org/2000/svg">
<path d="M21.8445 13.913H21.3177L19.0314 7.80226C19.2331 7.70511 19.3733 7.50431 19.3733 7.27061H19.0619C19.0619 7.37341 19.0067 7.46336 18.924 7.51518L18.8959 7.44006C18.8737 7.38019 18.8149 7.34023 18.7494 7.34023C18.6842 7.34023 18.6254 7.38005 18.603 7.44006L18.5808 7.49993C18.5103 7.44669 18.4639 7.36409 18.4639 7.27032C18.4639 7.18645 18.3941 7.11852 18.3082 7.11852L13.3204 7.11867V6.71115C13.3204 6.62727 13.2506 6.55935 13.1647 6.55935H12.8145L13.3026 5.93465C13.3352 5.89271 13.3433 5.83708 13.324 5.78765L12.6454 4.0878C12.5986 3.97073 12.4016 3.97073 12.3551 4.0878L11.6767 5.78765C11.657 5.8368 11.6651 5.89257 11.6981 5.93465L12.1861 6.55935H11.8356C11.7495 6.55935 11.6799 6.62741 11.6799 6.71115V7.11867H6.69206C6.60602 7.11867 6.53635 7.18673 6.53635 7.27046C6.53635 7.37002 6.48479 7.45771 6.40657 7.51038L6.38021 7.4402C6.35775 7.38033 6.29924 7.34036 6.23377 7.34036C6.16829 7.34036 6.10977 7.38019 6.08732 7.4402L6.06284 7.50586C5.98781 7.45276 5.93871 7.36733 5.93871 7.27046H5.62729C5.62729 7.49866 5.76127 7.69493 5.95493 7.79478L3.66632 13.9127H3.15571C3.06967 13.9127 3 13.9808 3 14.0645C3 14.9854 4.42429 15.7066 6.24256 15.7066C8.06054 15.7066 9.48472 14.9854 9.48472 14.0645C9.48472 13.9806 9.4149 13.9127 9.32901 13.9127H8.8019L6.51458 7.79911C6.66696 7.72286 6.78313 7.58702 6.82774 7.42222H11.6798V7.82973C11.6798 7.91361 11.7496 7.98153 11.8355 7.98153H11.9489V17.9089H11.7512C11.6652 17.9089 11.5955 17.9771 11.5955 18.0607V18.5795H10.4567C9.74609 18.5795 9.16596 19.1352 9.1499 19.8243H8.41914C8.3331 19.8243 8.26343 19.8924 8.26343 19.9761V20.8482C8.26343 20.9318 8.33325 21 8.41914 21H16.5807C16.6667 21 16.7364 20.9318 16.7364 20.8482V19.9761C16.7364 19.8922 16.6666 19.8243 16.5807 19.8243H15.8495C15.8336 19.1352 15.2536 18.5795 14.543 18.5795H13.4042L13.4043 18.0607C13.4043 17.9771 13.3345 17.9089 13.2486 17.9089H13.0512V7.98153H13.1646C13.2506 7.98153 13.3203 7.91347 13.3203 7.82973V7.42222H18.1724C18.2158 7.58193 18.3256 7.71537 18.4711 7.7929L16.1819 13.9126H15.6713C15.5853 13.9126 15.5156 13.9807 15.5156 14.0644C15.5156 14.9853 16.9399 15.7064 18.7581 15.7064C20.5764 15.7064 22 14.9851 22 14.0644C22.0003 13.9804 21.9306 13.9126 21.8446 13.9126L21.8445 13.913ZM12.5001 4.56146L13.0018 5.81837L12.5001 6.46061L11.9986 5.81852L12.5001 4.56146ZM6.07798 8.35173V13.913H3.9981L6.07798 8.35173ZM6.24238 15.4031C4.76581 15.4031 3.50216 14.8739 3.33077 14.2163H9.15325C8.98248 14.8739 7.7191 15.4031 6.24238 15.4031ZM6.3894 13.9127V8.35148L8.46984 13.9127H6.3894ZM16.425 20.1283V20.6968L8.57497 20.6966V20.1281H15.6949L16.425 20.1283ZM13.0928 18.2128V18.7316C13.0928 18.8152 13.1626 18.8834 13.2485 18.8834H14.543C15.0817 18.8834 15.519 19.303 15.5354 19.8245L9.4641 19.8247C9.48047 19.3032 9.91805 18.8835 10.4568 18.8835H11.7511C11.8372 18.8835 11.9068 18.8153 11.9068 18.7317L11.9067 18.2128H12.1044C12.1904 18.2128 12.2601 18.1447 12.2601 18.061V7.82997C12.2601 7.7461 12.1903 7.67818 12.1044 7.67818H11.9913V6.8634H13.0088V7.67818H12.8954C12.8094 7.67818 12.7397 7.74624 12.7397 7.82997V18.061C12.7397 18.1449 12.8095 18.2128 12.8954 18.2128L13.0928 18.2128ZM18.9053 8.35155L20.9862 13.9128H18.9053V8.35155ZM18.5937 8.35155V13.9128H16.5135L18.5937 8.35155ZM18.7584 15.4032C17.2818 15.4032 16.018 14.8741 15.8468 14.2165H21.6689C21.4979 14.8741 20.2345 15.4032 18.7585 15.4032H18.7584Z" fill="black"/>
</svg>
